<svg xmlns="http://www.w3.org/2000/svg" width="367.664" height="137.453" viewBox="0 0 367.664 137.453"><g transform="translate(187.216 21.119)"><path d="M3784.427,1779.924h22.744c13.284,0,22.173,9.174,22.173,21.406s-8.888,21.409-22.173,21.409h-11.276v24.082h-11.468Zm33.256,21.406c0-6.309-4.112-10.512-11.957-10.512h-9.84v21.034h9.84C3813.571,1811.851,3817.683,1807.638,3817.683,1801.33Z" transform="translate(-3784.427 -1774.57)" fill="#1f1f1f"/><path d="M3823.435,1776.064H3834.9v72.25h-11.467Z" transform="translate(-3769.339 -1776.064)" fill="#1f1f1f"/><path d="M3885.079,1795.824v45.3H3874.47V1835.2s-3.918,7.073-13.662,7.073c-11.759,0-22.072-9.841-22.072-23.8s10.313-23.816,22.072-23.816a16.225,16.225,0,0,1,13.662,7.073v-5.9Zm-11.463,15.847s-3.348-6.31-10.706-6.31c-7.744,0-12.522,5.637-12.522,13.091s4.779,13.092,12.522,13.092c7.358,0,10.706-6.3,10.706-6.3Z" transform="translate(-3763.42 -1768.872)" fill="#1f1f1f"/><path d="M3883.342,1850.256s3.058,2.966,6.019,2.966c3.918,0,5.546-1.15,7.744-6.691l1.813-4.686-22.073-46.347h12.71l15.29,33.16,11.956-33.16h12.327l-21.979,55.429c-3.918,9.936-10.324,12.994-17.015,12.994-6.888,0-12.139-4.754-12.139-4.754Z" transform="translate(-3748.678 -1768.546)" fill="#1f1f1f"/></g><g transform="translate(0 0)"><path d="M3788.147,2208.732H3677.611a13.5,13.5,0,0,1-13.475-13.443V2084.754a13.5,13.5,0,0,1,13.475-13.475h110.535a13.493,13.493,0,0,1,13.475,13.475V2195.29A13.5,13.5,0,0,1,3788.147,2208.732ZM3677.611,2079.9a4.859,4.859,0,0,0-4.849,4.85V2195.29a4.863,4.863,0,0,0,4.849,4.863h110.535a4.863,4.863,0,0,0,4.827-4.863V2084.754a4.861,4.861,0,0,0-4.827-4.85Z" transform="translate(-3664.136 -2071.279)" fill="#1f1f1f"/><g transform="translate(112.076 66.48) rotate(120)"><path d="M11.363,33.657a1.33,1.33,0,0,0,.46-.952V7.412a1.5,1.5,0,0,0-.611-1.051C7.711,4.3,4.193,2.277.675.252A5.832,5.832,0,0,0,0,0V40.087a1.229,1.229,0,0,0,.317-.041C4,37.919,7.693,35.807,11.363,33.657Z" transform="translate(0 18.075)" fill="#1f1f1f"/><path d="M.7,13.994c7.234,4.24,14.5,8.374,21.766,12.6a1.138,1.138,0,0,0,1.346,0c1.763-1.037,3.54-2.025,5.305-3.068l5.865-3.39L.087,0A3.388,3.388,0,0,0,0,.486V12.971A1.452,1.452,0,0,0,.7,13.994Z" transform="translate(17.977 7.608)" fill="#1f1f1f"/><path d="M22.419.248Q11.6,6.536.749,12.741a1.219,1.219,0,0,0-.74,1.275v11.9a6.84,6.84,0,0,0,.05.918L34.967,6.658C31.227,4.473,27.494,2.37,23.885.228a1.3,1.3,0,0,0-1.471,0Z" transform="translate(17.926 41.853)" fill="#1f1f1f"/><path d="M8.113,2.14c-1.962,1.153-3.991,2.242-5.851,3.5A5.66,5.66,0,0,0,.539,12.58a5.84,5.84,0,0,0,6.55,3.4,5.78,5.78,0,0,0,4.74-5.361c.068-3.463,0-6.94,0-10.623C10.483.762,9.3,1.446,8.113,2.14Z" transform="translate(13.458 75.119) rotate(180)" fill="#1f1f1f"/><path d="M6.86.065A5.924,5.924,0,0,0,.48,3.74a5.644,5.644,0,0,0,1.983,6.94c2.99,1.906,6.128,3.61,9.384,5.512,0-3.735.087-7.263,0-10.789A5.835,5.835,0,0,0,6.86.065Z" transform="matrix(-0.995, 0.105, -0.105, -0.995, 13.85, 16.103)" fill="#1f1f1f"/><path d="M17.509,5.294A5.869,5.869,0,0,0,8.691.812c-1.41.744-2.8,1.608-4.2,2.421L0,5.841c3.215,1.837,6.174,3.734,9.333,5.226a5.782,5.782,0,0,0,8.175-5.773Z" transform="translate(64.821 44.408) rotate(180)" fill="#1f1f1f"/></g></g></svg>