<svg xmlns="http://www.w3.org/2000/svg" width="467.126" height="138.039" viewBox="0 0 467.126 138.039"><g transform="translate(-9845.018 -8009.606)"><g transform="translate(9845.018 8009.606)"><path d="M12.905,8.873a4.036,4.036,0,0,0-4.032,4.032V125.148a4.036,4.036,0,0,0,4.032,4.032H125.148a4.036,4.036,0,0,0,4.032-4.032V12.905a4.036,4.036,0,0,0-4.032-4.032H12.905m0-8.873H125.148a12.905,12.905,0,0,1,12.891,12.905V125.148a12.905,12.905,0,0,1-12.891,12.891H12.905A12.905,12.905,0,0,1,0,125.148V12.905A12.905,12.905,0,0,1,12.905,0Z" transform="translate(0 0)" fill="#1f1f1f"/><g transform="translate(46.415 25.988)"><path d="M179.67,73.4l11.279-1.674.525.2L207.988,98.3s.257.362-.207,1.047c-1.348,2.033-5.851,9.29-5.851,9.29Z" transform="translate(-160.99 -71.73)" fill="#1f1f1f"/><path d="M135.24,217.656,146.519,216l.525.2,16.514,26.372s.257.362-.207,1.047c-1.348,2.029-5.851,9.29-5.851,9.29Z" transform="translate(-132.657 -163.73)" fill="#1f1f1f"/><path d="M128.11,100.2l12.434-2.427.558.178L173.04,146.9s.257.344-.293,1.087c-1.594,2.192-6.956,10.01-6.956,10.01Z" transform="translate(-128.11 -88.336)" fill="#1f1f1f"/></g></g><path d="M43.248-18.666c0,5.814-6.324,8.262-12.444,8.262-10.812,0-16.932-10.71-16.932-10.71l-9.18,7.752S12.954,1.224,30.8,1.224c13.464,0,24.888-6.936,24.888-19.89S46.614-36.516,35.7-40.6c-9.792-3.672-15.4-5.61-15.4-11.832C20.3-57.222,25.092-61,31.212-61,40.086-61,46-52.938,46-52.938L54.468-61.3S46.1-72.624,31.212-72.624c-14.382,0-23.358,10.1-23.358,20.2,0,13.26,11.832,18.972,22.338,22.644C38.658-26.826,43.248-24.684,43.248-18.666ZM89.556-10.2c-8.262,0-13.566-6.426-13.566-13.974s5.3-13.974,13.566-13.974a15.03,15.03,0,0,1,11.322,5.1l8.466-7.548a25.917,25.917,0,0,0-19.788-8.976c-14.484,0-26.01,11.118-26.01,25.4,0,14.178,11.526,25.4,26.01,25.4a26.167,26.167,0,0,0,19.992-9.18l-8.058-8.16A14.277,14.277,0,0,1,89.556-10.2ZM144.84-49.572a16.407,16.407,0,0,0-13.668,7.038V-77.112h-12.24V0h12.24V-31.824s3.264-6.324,9.588-6.324c5.3,0,9.588,2.958,9.588,9.894V0h12.24V-31.314C162.588-42.942,154.224-49.572,144.84-49.572Zm52.53,0c-14.382,0-25.806,11.118-25.806,25.4a25.427,25.427,0,0,0,25.806,25.4,25.427,25.427,0,0,0,25.806-25.4C223.176-38.454,211.752-49.572,197.37-49.572Zm0,39.372c-8.262,0-13.362-6.426-13.362-13.974s5.1-13.974,13.362-13.974,13.362,6.426,13.362,13.974S205.632-10.2,197.37-10.2Zm57.324-39.372c-14.382,0-25.806,11.118-25.806,25.4a25.427,25.427,0,0,0,25.806,25.4,25.427,25.427,0,0,0,25.806-25.4C280.5-38.454,269.076-49.572,254.694-49.572Zm0,39.372c-8.262,0-13.362-6.426-13.362-13.974s5.1-13.974,13.362-13.974,13.362,6.426,13.362,13.974S262.956-10.2,254.694-10.2ZM290.9,0h12.24V-77.112H290.9Z" transform="translate(10009 8120)" fill="#1f1f1f"/></g></svg>