<svg xmlns="http://www.w3.org/2000/svg" width="537.749" height="137.615" viewBox="0 0 537.749 137.615"><path d="M2851.91,1898.451H2741.245a13.515,13.515,0,0,1-13.492-13.459V1774.326a13.519,13.519,0,0,1,13.492-13.491H2851.91a13.509,13.509,0,0,1,13.491,13.491v110.666A13.513,13.513,0,0,1,2851.91,1898.451Zm-110.665-128.98a4.865,4.865,0,0,0-4.857,4.855v110.666a4.869,4.869,0,0,0,4.857,4.869H2851.91a4.87,4.87,0,0,0,4.833-4.869V1774.326a4.866,4.866,0,0,0-4.833-4.855Z" transform="translate(-2727.753 -1760.835)" fill="#1f1f1f"/><path d="M2769.365,1841.678c1.159-1.568,2.239-3.026,3.32-4.474,1-1.352,2.015-2.7,2.99-4.061a1.206,1.206,0,0,1,1.15-.46c8.2,0,16.4,0,24.6.046a1.634,1.634,0,0,1,1.076.423c2.073,2.708,4.089,5.472,6.126,8.226a2.782,2.782,0,0,1,.151.355Zm50.324-.125a1.309,1.309,0,0,1-.919-.524q-5.516-9.467-10.939-18.977a.77.77,0,0,1-.069-.151q-5.174-8.9-10.282-17.843a1.1,1.1,0,0,1-.069-.919c1.84-3.219,3.679-6.392,5.518-9.579.023-.042.093-.068.216-.165l17.337,30.1h0l10.365,17.994a4.413,4.413,0,0,1-.6.069h-3.678q-3.467.023-6.894-.01Zm-61.218,0c-3.677-.036-7.315-.036-11.092-.036l10.425-17.994h-.068l17.474-30.206a6.819,6.819,0,0,1,.417.661c1.721,2.98,3.421,5.979,5.155,8.925a1.093,1.093,0,0,1,0,1.241q-5.113,8.824-10.194,17.658a1.151,1.151,0,0,1-.156.335q-5.435,9.363-10.843,18.771a1.141,1.141,0,0,1-1.026.649.685.685,0,0,0-.11,0Z" transform="translate(-2720.162 -1748.271)" fill="#1f1f1f"/><path d="M2858.721,1777.842l21.894,33.8,21.892-33.8h10.655v67.209h-11.5v-45.128l-21.028,31.973-21.074-31.973v45.128h-11.519v-67.209Z" transform="translate(-2681.223 -1754.257)" fill="#1f1f1f"/><path d="M2944.8,1809.649v29.668h-10.669v-5.761s-4.7,6.9-14.977,6.9c-8.549,0-16.421-5.568-16.421-15.266,0-8.737,7.968-15.073,17.859-15.073,8.355,0,12.674,3.26,12.674,3.26v-2.589c0-5.979-5.762-7.877-9.8-7.877-6.622,0-13.634,3.361-13.634,3.361l-3.734-9.464a46.027,46.027,0,0,1,17.956-4.138C2937.117,1792.667,2944.8,1799.28,2944.8,1809.649Zm-11.524,15.937v-4.7a23.1,23.1,0,0,0-10.369-2.3c-3.55,0-8.447,1.537-8.447,6.439,0,4.8,4.7,5.858,8.254,5.858A13.514,13.514,0,0,0,2933.277,1825.586Z" transform="translate(-2660.068 -1748.522)" fill="#1f1f1f"/><path d="M2982.473,1809.841v29.475H2970.95v-26.6c0-6.53-4.033-9.312-9.022-9.312-5.978,0-9.025,5.859-9.025,5.859v30.05h-11.524v-45.523h10.756v6.626a15.724,15.724,0,0,1,13.634-7.752C2974.6,1792.667,2982.473,1798.892,2982.473,1809.841Z" transform="translate(-2645.122 -1748.522)" fill="#1f1f1f"/><path d="M3019.854,1809.649v29.668H3009.2v-5.761s-4.7,6.9-14.982,6.9c-8.542,0-16.415-5.568-16.415-15.266,0-8.737,7.968-15.073,17.859-15.073,8.351,0,12.674,3.26,12.674,3.26v-2.589c0-5.979-5.762-7.877-9.795-7.877-6.626,0-13.634,3.361-13.634,3.361l-3.743-9.464a45.957,45.957,0,0,1,17.933-4.138C3012.171,1792.667,3019.854,1799.28,3019.854,1809.649Zm-11.523,15.937v-4.7a23.1,23.1,0,0,0-10.369-2.3c-3.554,0-8.453,1.537-8.453,6.439,0,4.8,4.7,5.858,8.278,5.858A13.512,13.512,0,0,0,3008.331,1825.586Z" transform="translate(-2631.033 -1748.522)" fill="#1f1f1f"/><path d="M3036.4,1840.49c-11.809,0-22.178-9.891-22.178-23.911s10.369-23.911,22.178-23.911a16.306,16.306,0,0,1,13.717,7.091v-5.951h10.659v45.9c0,15.841-11.717,22.849-24.487,22.849a32.8,32.8,0,0,1-21.612-8.64l6.553-8.824s6.354,6.709,15.091,6.709c8.931,0,12.964-4.893,12.964-11.713v-5.472A16.323,16.323,0,0,1,3036.4,1840.49Zm12.875-30.726a12.612,12.612,0,0,0-10.848-6.336c-7.78,0-12.484,5.665-12.484,13.151s4.7,13.155,12.484,13.155a12.8,12.8,0,0,0,10.848-6.336Z" transform="translate(-2616.945 -1748.523)" fill="#1f1f1f"/><path d="M3099.693,1816.374c0,.864,0,2.588-.1,4.317h-33.987c.86,4.033,5.568,9.219,12.77,9.219a18.333,18.333,0,0,0,12.48-4.6l5.762,8.644a29.149,29.149,0,0,1-18.242,6.531c-13.828,0-24.487-10.577-24.487-23.913s9.7-23.911,22.854-23.911C3089.227,1792.669,3099.693,1802.353,3099.693,1816.374Zm-11.524-4.033c-.188-3.937-3.838-9.2-11.421-9.2-7.395,0-10.756,5.187-11.138,9.2Z" transform="translate(-2601.6 -1748.524)" fill="#1f1f1f"/><path d="M3124.216,1794.093l-4.033,10.373a13.217,13.217,0,0,0-5.472-1.058c-7.008,0-10.175,6.144-10.175,6.144v29.765h-11.524v-45.524h10.949v6.626s3.936-7.752,12.384-7.752A24.741,24.741,0,0,1,3124.216,1794.093Z" transform="translate(-2586.467 -1748.522)" fill="#1f1f1f"/></svg>