<svg xmlns="http://www.w3.org/2000/svg" width="464.966" height="137.615" viewBox="0 0 464.966 137.615"><path d="M3350.607,1898.451H3239.943a13.514,13.514,0,0,1-13.492-13.459V1774.326a13.519,13.519,0,0,1,13.492-13.491h110.665a13.509,13.509,0,0,1,13.491,13.491v110.666A13.514,13.514,0,0,1,3350.607,1898.451Zm-110.665-128.98a4.865,4.865,0,0,0-4.857,4.855v110.666a4.869,4.869,0,0,0,4.857,4.869h110.665a4.87,4.87,0,0,0,4.833-4.869V1774.326a4.867,4.867,0,0,0-4.833-4.855Z" transform="translate(-3226.45 -1760.835)" fill="#1f1f1f"/><path d="M3291.027,1791.7c-4.41,7.559-8.769,15.133-13.161,22.7a1.2,1.2,0,0,0,0,1.38c1.1,1.839,2.143,3.678,3.219,5.54,1.153,1.987,2.341,3.969,3.54,6.121l21.016-36.406a3.842,3.842,0,0,0-.5-.092H3292.1a1.513,1.513,0,0,0-1.081.731Z" transform="translate(-3206.647 -1749.186)" fill="#1f1f1f"/><path d="M3257.534,1842.5c4.4-7.555,8.765-15.138,13.157-22.7a1.2,1.2,0,0,0,0-1.4c-1.1-1.839-2.148-3.679-3.219-5.541-1.155-1.987-2.341-3.969-3.542-6.125l-21.015,36.409a3.583,3.583,0,0,0,.5.093h13.042A1.531,1.531,0,0,0,3257.534,1842.5Z" transform="translate(-3220.081 -1743.083)" fill="#1f1f1f"/><path d="M3281.489,1814.336q-6.563-11.289-13.077-22.62a1.284,1.284,0,0,0-1.3-.782h-12.415a6.644,6.644,0,0,0-.953.056l21.062,36.5c2.3-3.9,4.474-7.818,6.7-11.565a1.352,1.352,0,0,0,0-1.586Z" transform="translate(-3215.893 -1749.194)" fill="#1f1f1f"/><path d="M3288.712,1819.877q6.561,11.293,13.072,22.619a1.288,1.288,0,0,0,1.3.782H3315.5a6.6,6.6,0,0,0,.953-.055l-21.062-36.5c-2.3,3.9-4.469,7.816-6.7,11.565a1.353,1.353,0,0,0,0,1.587Z" transform="translate(-3202.473 -1743.084)" fill="#1f1f1f"/><path d="M3281.616,1783.712a6.174,6.174,0,0,0-7.665-.047,5.9,5.9,0,0,0-1.84,7.313c1.707,3.282,3.651,6.469,5.605,9.873,1.95-3.376,3.872-6.521,5.629-9.749a6.088,6.088,0,0,0-1.73-7.389Z" transform="translate(-3209.012 -1752.511)" fill="#1f1f1f"/><path d="M3277.989,1831.287a6.121,6.121,0,0,0,5.521-6.666l0-.019a6.178,6.178,0,0,0-.818-2.52c-.781-1.472-1.678-2.925-2.52-4.391s-1.755-3.022-2.722-4.682c-1.9,3.338-3.9,6.438-5.463,9.744a6.037,6.037,0,0,0,6.024,8.534Z" transform="translate(-3209.051 -1740.654)" fill="#1f1f1f"/><path d="M3357.418,1785.8l21.893,33.8,21.894-33.8h10.655v67.21h-11.5v-45.124l-21.028,31.972-21.028-31.972v45.124h-11.565V1785.8Z" transform="translate(-3179.92 -1751.177)" fill="#1f1f1f"/><path d="M3443.5,1817.611v29.669h-10.667v-5.762s-4.7,6.9-14.978,6.9c-8.549,0-16.421-5.57-16.421-15.267,0-8.737,7.97-15.073,17.861-15.073,8.355,0,12.673,3.264,12.673,3.264v-2.593c0-5.955-5.76-7.873-9.794-7.873-6.622,0-13.635,3.357-13.635,3.357l-3.733-9.468a46.018,46.018,0,0,1,17.957-4.138C3435.815,1800.625,3443.5,1807.241,3443.5,1817.611Zm-11.523,15.938v-4.7a23.1,23.1,0,0,0-10.37-2.3c-3.55,0-8.447,1.535-8.447,6.438,0,4.8,4.7,5.858,8.255,5.858A13.511,13.511,0,0,0,3431.975,1833.549Z" transform="translate(-3158.766 -1745.444)" fill="#1f1f1f"/><path d="M3444.441,1831.828s6.048,6.531,13.731,6.531c4.7,0,8.641-1.348,8.641-4.14,0-2.979-2.11-3.554-9.027-4.993-9.027-1.922-16.9-5.762-16.9-14.4,0-7.1,7.1-14.208,19.589-14.208a29.043,29.043,0,0,1,17.074,5.578l-5.748,8.447s-5.187-3.937-11.33-3.937c-4.323,0-8.277,1.536-8.277,4.318s3.072,3.457,10.755,5.091c9.023,1.922,15.46,4.9,15.46,14.305,0,7.78-8.277,14.021-19.879,14.021a28.379,28.379,0,0,1-20.545-8.277Z" transform="translate(-3144.626 -1745.448)" fill="#1f1f1f"/><path d="M3470.888,1805.226h8.925v-13.538h11.523v13.538h13.73v10.351h-13.73v18.338c0,5.57,2.879,7.2,5.979,7.2a9.113,9.113,0,0,0,4.8-1.632l4.226,9.412a20.712,20.712,0,0,1-10.943,2.976c-8.834,0-15.557-6.438-15.557-16.131v-20.164h-8.948Z" transform="translate(-3131.899 -1748.901)" fill="#1f1f1f"/><path d="M3545.9,1824.334c0,.864,0,2.593-.1,4.323h-33.987c.864,4.027,5.568,9.2,12.77,9.2a18.329,18.329,0,0,0,12.48-4.6l5.762,8.641a29.149,29.149,0,0,1-18.242,6.552c-13.828,0-24.487-10.576-24.487-23.911s9.7-23.911,22.855-23.911C3535.438,1800.625,3545.9,1810.313,3545.9,1824.334Zm-11.5-4.033c-.193-3.936-3.844-9.2-11.427-9.2-7.394,0-10.755,5.182-11.138,9.2Z" transform="translate(-3120.599 -1745.444)" fill="#1f1f1f"/><path d="M3570.431,1802.059l-4.033,10.369a13.254,13.254,0,0,0-5.477-1.057c-7.008,0-10.177,6.142-10.177,6.142v29.766h-11.519v-45.525h10.944v6.64s3.936-7.77,12.375-7.77A24.83,24.83,0,0,1,3570.431,1802.059Z" transform="translate(-3105.466 -1745.444)" fill="#1f1f1f"/></svg>