<svg xmlns="http://www.w3.org/2000/svg" width="1294" height="587" viewBox="0 0 1294 587"><g transform="translate(141 144.168)"><rect width="280.49" height="280.49" rx="19.95" transform="translate(9.39 9.39)" fill="#1f2936"/><path d="M270,299.27H29.34A29.39,29.39,0,0,1,0,270V29.34A29.4,29.4,0,0,1,29.34,0H270a29.38,29.38,0,0,1,29.34,29.34V270A29.39,29.39,0,0,1,270,299.27ZM29.34,18.78A10.58,10.58,0,0,0,18.78,29.34V270a10.59,10.59,0,0,0,10.56,10.59H270A10.59,10.59,0,0,0,280.51,270V29.34A10.58,10.58,0,0,0,270,18.78Z" transform="translate(0 0)" fill="#5b438f"/><path d="M183.5,92.46c-9.59,16.44-19.07,32.91-28.62,49.37a2.6,2.6,0,0,0,0,3c2.39,4,4.66,8,7,12.05,2.51,4.32,5.09,8.63,7.7,13.31l45.7-79.17a7.9,7.9,0,0,0-1.08-.2H185.84a3.29,3.29,0,0,0-2.35,1.59Z" transform="translate(0 0)" fill="#fff"/><path d="M81.45,216.2c9.57-16.43,19.06-32.92,28.61-49.37a2.6,2.6,0,0,0,0-3.05c-2.39-4-4.67-8-7-12.05-2.51-4.32-5.09-8.63-7.7-13.32l-45.7,79.18a7.621,7.621,0,0,0,1.08.2H79.1a3.32,3.32,0,0,0,2.35-1.59Z" transform="translate(0 0)" fill="#fff"/><path d="M142.65,141.66q-14.27-24.55-28.44-49.19a2.79,2.79,0,0,0-2.83-1.7h-27a14.37,14.37,0,0,0-2.07.12l45.8,79.37c5-8.48,9.73-17,14.58-25.15a2.94,2.94,0,0,0,0-3.45Z" transform="translate(0 0)" fill="#fff"/><path d="M187.54,167q14.27,24.56,28.43,49.19a2.8,2.8,0,0,0,2.83,1.7h27a14.21,14.21,0,0,0,2.07-.12l-45.8-79.37c-5,8.48-9.72,17-14.57,25.15a2.94,2.94,0,0,0,0,3.45Z" transform="translate(0 0)" fill="#fff"/><path d="M157.89,67.85a13.43,13.43,0,0,0-16.67-.1,12.82,12.82,0,0,0-4,15.9c3.71,7.14,7.94,14.07,12.19,21.47,4.24-7.34,8.42-14.18,12.24-21.2a13.24,13.24,0,0,0-3.76-16.07Z" transform="translate(0 0)" fill="#fff"/><path d="M149.92,197.1a13.31,13.31,0,0,0,12-14.54,13.46,13.46,0,0,0-1.78-5.48c-1.7-3.2-3.65-6.36-5.48-9.55s-3.82-6.57-5.92-10.18c-4.14,7.26-8.49,14-11.88,21.19a13.13,13.13,0,0,0,13.1,18.56Z" transform="translate(0 0)" fill="#fff"/><path d="M386,75.3l47.61,73.5,47.61-73.5h23.17V221.46h-25V123.33l-45.73,69.53-45.73-69.53v98.13H362.78V75.3Z" transform="translate(0 0)" fill="#0e171f"/><path d="M619.2,156.94v64.52H596V208.93s-10.23,15-32.57,15c-18.59,0-35.71-12.11-35.71-33.2,0-19,17.33-32.78,38.84-32.78,18.17,0,27.56,7.1,27.56,7.1v-5.64c0-12.95-12.53-17.12-21.3-17.12-14.4,0-29.65,7.3-29.65,7.3L535.05,129s18.38-9,39.05-9C602.49,120,619.2,134.39,619.2,156.94ZM594.14,191.6V181.37s-9-5-22.55-5c-7.72,0-18.37,3.34-18.37,14,0,10.44,10.23,12.74,17.95,12.74C586.21,203.09,594.14,191.6,594.14,191.6Z" transform="translate(0 0)" fill="#0e171f"/><path d="M652,187.85s13.15,14.2,29.86,14.2c10.23,0,18.79-2.93,18.79-9,0-6.48-4.59-7.73-19.63-10.86-19.63-4.18-36.75-12.53-36.75-31.32,0-15.45,15.45-30.9,42.6-30.9A63.19,63.19,0,0,1,724,132.1l-12.5,18.37s-11.28-8.56-24.64-8.56c-9.4,0-18,3.34-18,9.39s6.68,7.52,23.39,11.07c19.62,4.18,33.62,10.65,33.62,31.11,0,16.92-18,30.49-43.23,30.49-29,0-44.68-18-44.68-18Z" transform="translate(0 0)" fill="#0e171f"/><path d="M737.19,122.49H756.6V93.05h25.06v29.44h29.86V145H781.66v39.88c0,12.11,6.26,15.66,13,15.66,5.63,0,10.43-3.55,10.43-3.55l9.19,20.47s-9.39,6.47-23.8,6.47c-19.21,0-33.83-14-33.83-35.08V145H737.19Z" transform="translate(0 0)" fill="#0e171f"/><path d="M924.9,171.56c0,1.88,0,5.64-.21,9.4H850.78c1.88,8.76,12.11,20,27.77,20,17.33,0,27.14-10,27.14-10l12.53,18.79A63.38,63.38,0,0,1,878.55,224c-30.07,0-53.25-23-53.25-52s21.09-52,49.7-52C902.14,120,924.9,141.07,924.9,171.56Zm-25-8.77c-.42-8.56-8.36-20-24.85-20-16.08,0-23.39,11.27-24.22,20Z" transform="translate(0 0)" fill="#0e171f"/><path d="M1011.15,123.12l-8.77,22.55a28.8,28.8,0,0,0-11.91-2.3c-15.24,0-22.13,13.36-22.13,13.36v64.73H943.29v-99h23.8V136.9S975.65,120,994,120a54,54,0,0,1,17.15,3.12Z" transform="translate(0 0)" fill="#0e171f"/></g><rect width="1294" height="587" fill="none"/></svg>