<svg xmlns="http://www.w3.org/2000/svg" width="1294" height="587" viewBox="0 0 1294 587"><g transform="translate(-6902 -5069)"><g transform="translate(6902 5069)"><g transform="translate(62 144.168)"><path d="M19.95,0H260.54a19.95,19.95,0,0,1,19.95,19.95V260.54a19.95,19.95,0,0,1-19.95,19.95H19.95A19.95,19.95,0,0,1,0,260.54V19.95A19.95,19.95,0,0,1,19.95,0Z" transform="translate(9.39 9.39)" fill="#1f2936"/><path d="M270,299.27H29.34A29.39,29.39,0,0,1,0,270V29.34A29.4,29.4,0,0,1,29.34,0H270a29.38,29.38,0,0,1,29.34,29.34V270A29.39,29.39,0,0,1,270,299.27ZM29.34,18.78A10.58,10.58,0,0,0,18.78,29.34V270a10.59,10.59,0,0,0,10.56,10.59H270A10.59,10.59,0,0,0,280.51,270V29.34A10.58,10.58,0,0,0,270,18.78Z" transform="translate(0 0)" fill="#767b97"/><path d="M216.44,202.86a2.85,2.85,0,0,1-2-1.14q-12-20.59-23.79-41.27a1.659,1.659,0,0,1-.15-.33q-11.25-19.35-22.36-38.8a2.38,2.38,0,0,1-.15-2c4-7,8-13.9,12-20.83.05-.09.2-.15.47-.36l37.7,65.47h0l22.54,39.13a9.549,9.549,0,0,1-1.31.15h-8q-7.54.05-14.99-.02Zm-133.13,0c-8-.08-15.91-.08-24.12-.08l22.67-39.13h-.15l38-65.69a15.214,15.214,0,0,1,.91,1.44c3.74,6.48,7.44,13,11.21,19.41a2.38,2.38,0,0,1,0,2.7q-11.12,19.19-22.17,38.4a2.43,2.43,0,0,1-.34.73c-3.3,5.687-6.6,11.38-10.043,17.336-4.42,7.645-8.982,15.559-13.537,23.484a2.48,2.48,0,0,1-2.23,1.41,2,2,0,0,0-.24,0Z" transform="translate(0 0)" fill="#fff"/></g><rect width="1294" height="587" fill="none"/></g><path d="M1.248,0H26.416L39.728-34.528H101.3L114.608,0h25.168L83.2-145.6H57.824ZM70.512-114.192l21.84,56.784H48.672Zm177.216-43.056h-24.96v69.056s-9.152-12.9-27.872-12.9c-25.584,0-48.048,21.424-48.048,51.792S169.312,2.5,194.9,2.5C216.112,2.5,224.64-12.9,224.64-12.9V0h23.088Zm-24.96,122.72S215.7-20.8,199.264-20.8c-16.848,0-27.04-12.272-27.04-28.5s10.192-28.5,27.04-28.5c16.432,0,23.5,13.728,23.5,13.728ZM390-101.088c-23.088,0-31.408,17.264-31.408,17.264s-6.864-17.264-30.576-17.264c-20.176,0-29.12,16.848-29.12,16.848V-98.592H275.6V0h24.96V-65.1S306.8-77.792,319.9-77.792c12.48,0,17.68,7.28,17.68,20.8V0h24.96V-65.1s6.24-12.688,19.344-12.688c12.48,0,17.68,7.28,17.68,20.8V0h24.96V-63.44C424.528-87.152,409.968-101.088,390-101.088ZM453.44,0H478.4V-98.592H453.44Zm-3.952-130.416a16.335,16.335,0,0,0,16.432,16.432,16.335,16.335,0,0,0,16.432-16.432,16.335,16.335,0,0,0-16.432-16.432A16.335,16.335,0,0,0,449.488-130.416Zm110.656,29.328A34.071,34.071,0,0,0,530.608-84.24V-98.592h-23.3V0h24.96V-65.1s6.656-12.688,19.552-12.688c10.816,0,19.552,6.032,19.552,20.176V0h24.96V-63.856C596.336-87.568,579.28-101.088,560.144-101.088Z" transform="translate(7327 5417)" fill="#0e171f"/></g></svg>