<svg xmlns="http://www.w3.org/2000/svg" width="1294" height="587" viewBox="0 0 1294 587"><g transform="translate(275 144.168)"><rect width="280.49" height="280.49" rx="19.95" transform="translate(9.39 9.39)" fill="#1f2936"/><path d="M270,299.27H29.34A29.39,29.39,0,0,1,0,270V29.34A29.4,29.4,0,0,1,29.34,0H270a29.38,29.38,0,0,1,29.34,29.34V270A29.39,29.39,0,0,1,270,299.27ZM29.34,18.78A10.58,10.58,0,0,0,18.78,29.34V270a10.59,10.59,0,0,0,10.56,10.59H270A10.59,10.59,0,0,0,280.51,270V29.34A10.58,10.58,0,0,0,270,18.78Z" transform="translate(0 0)" fill="#1782b8"/><g transform="translate(79.895 69.078)"><path d="M104.69,178.37a2.88,2.88,0,0,0,1-2.07V121.23a3.25,3.25,0,0,0-1.33-2.29c-7.62-4.49-15.28-8.89-22.94-13.3a13,13,0,0,0-1.47-.55v87.28a2.721,2.721,0,0,0,.69-.09C88.66,187.65,96.7,183.05,104.69,178.37Z" transform="translate(-79.895 -69.078)" fill="#f9f9f8"/><path d="M120.61,112.77C136.36,122,152.18,131,168,140.2a2.48,2.48,0,0,0,2.93,0c3.84-2.26,7.71-4.41,11.55-6.68l12.77-7.38L119.28,82.3a7.59,7.59,0,0,0-.19,1.06v27.18a3.17,3.17,0,0,0,1.52,2.23Z" transform="translate(-79.895 -69.078)" fill="#f9f9f8"/><path d="M167.79,157.4q-23.55,13.69-47.18,27.2a2.66,2.66,0,0,0-1.61,2.78v25.9a14.81,14.81,0,0,0,.11,2l76-43.92c-8.14-4.76-16.27-9.34-24.13-14a2.82,2.82,0,0,0-3.2,0Z" transform="translate(-79.895 -69.078)" fill="#f9f9f8"/><path d="M97.57,198c-4.27,2.51-8.69,4.88-12.74,7.63a12.32,12.32,0,0,0-3.75,15.1,12.71,12.71,0,0,0,14.26,7.41,12.58,12.58,0,0,0,10.32-11.67c.15-7.54,0-15.11,0-23.13C102.73,195,100.15,196.49,97.57,198Z" transform="translate(-79.895 -69.078)" fill="#f9f9f8"/><path d="M94.83,69.22a12.9,12.9,0,0,0-13.89,8,12.29,12.29,0,0,0,4.32,15.11c6.51,4.15,13.34,7.86,20.43,12,0-8.13.19-15.81,0-23.49A12.7,12.7,0,0,0,94.83,69.22Z" transform="translate(-79.895 -69.078)" fill="#f9f9f8"/><path d="M221,147.7a12.78,12.78,0,0,0-19.2-9.76c-3.07,1.62-6.1,3.5-9.15,5.27l-9.77,5.68c7,4,13.44,8.13,20.32,11.38A12.59,12.59,0,0,0,221,147.7Z" transform="translate(-79.895 -69.078)" fill="#f9f9f8"/></g><path d="M362.78,57.57h49.46c28.89,0,48.22,19.95,48.22,46.55s-19.33,46.56-48.22,46.56H387.72v52.37H362.78Zm72.32,46.55c0-13.72-8.94-22.86-26-22.86H387.7V127h21.4c17.06,0,26-9.16,26-22.88Z" transform="translate(0 0)" fill="#0e171f"/><path d="M480.42,45.93h24.94V203.05H480.42Z" transform="translate(0 0)" fill="#0e171f"/><path d="M627.35,104.54v98.51H604.28V190.16s-8.52,15.38-29.71,15.38c-25.57,0-48-21.4-48-51.75S549,102,574.57,102a35.28,35.28,0,0,1,29.71,15.38V104.54ZM602.42,139s-7.28-13.72-23.28-13.72c-16.84,0-27.23,12.26-27.23,28.47s10.39,28.47,27.23,28.47c16,0,23.28-13.71,23.28-13.71Z" transform="translate(0 0)" fill="#0e171f"/><path d="M655.63,223.62s6.65,6.45,13.09,6.45c8.52,0,12.06-2.5,16.84-14.55l3.94-10.19-48-100.79h27.64l33.25,72.11,26-72.11H755.2L707.4,225.08c-8.52,21.61-22.45,28.26-37,28.26C655.42,253.34,644,243,644,243Z" transform="translate(0 0)" fill="#0e171f"/></g><rect width="1294" height="587" fill="none"/></svg>