<svg xmlns="http://www.w3.org/2000/svg" width="1294" height="587" viewBox="0 0 1294 587"><g transform="translate(62 144.168)"><rect width="280.49" height="280.49" rx="19.95" transform="translate(9.39 9.39)" fill="#1f2936"/><path d="M270,299.27H29.34A29.39,29.39,0,0,1,0,270V29.34A29.4,29.4,0,0,1,29.34,0H270a29.38,29.38,0,0,1,29.34,29.34V270A29.39,29.39,0,0,1,270,299.27ZM29.34,18.78A10.58,10.58,0,0,0,18.78,29.34V270a10.59,10.59,0,0,0,10.56,10.59H270A10.59,10.59,0,0,0,280.51,270V29.34A10.58,10.58,0,0,0,270,18.78Z" transform="translate(0 0)" fill="#e6c457"/><path d="M107,203.13c2.52-3.41,4.87-6.58,7.22-9.73,2.17-2.94,4.38-5.87,6.5-8.83a2.63,2.63,0,0,1,2.5-1c17.84,0,35.66,0,53.5.1a3.54,3.54,0,0,1,2.34.92c4.51,5.89,8.89,11.9,13.32,17.89a5.749,5.749,0,0,1,.33.77Zm109.44-.27a2.85,2.85,0,0,1-2-1.14q-12-20.59-23.79-41.27a1.659,1.659,0,0,1-.15-.33q-11.25-19.35-22.36-38.8a2.38,2.38,0,0,1-.15-2c4-7,8-13.9,12-20.83.05-.09.2-.15.47-.36l37.7,65.47h0l22.54,39.13a9.549,9.549,0,0,1-1.31.15h-8q-7.54.05-14.99-.02Zm-133.13,0c-8-.08-15.91-.08-24.12-.08l22.67-39.13h-.15l38-65.69a15.214,15.214,0,0,1,.91,1.44c3.74,6.48,7.44,13,11.21,19.41a2.38,2.38,0,0,1,0,2.7q-11.12,19.19-22.17,38.4a2.43,2.43,0,0,1-.34.73Q97.5,181,85.74,201.46a2.48,2.48,0,0,1-2.23,1.41,2,2,0,0,0-.24,0Z" transform="translate(0 0)" fill="#fff"/><path d="M386,51.29l47.61,73.5,47.61-73.5h23.17V197.45h-25V99.31l-45.73,69.53L387.83,99.31v98.14H362.78V51.29Z" transform="translate(0 0)" fill="#0e171f"/><path d="M619.2,132.93v64.52H596V184.92s-10.23,15-32.57,15c-18.59,0-35.71-12.11-35.71-33.2,0-19,17.33-32.78,38.84-32.78,18.17,0,27.56,7.09,27.56,7.09V135.4c0-13-12.53-17.13-21.3-17.13-14.4,0-29.65,7.31-29.65,7.31L535.05,105s18.38-9,39.05-9C602.49,96,619.2,110.38,619.2,132.93Zm-25.06,34.66V157.36s-9-5-22.55-5c-7.72,0-18.37,3.34-18.37,14,0,10.44,10.23,12.74,17.95,12.74C586.21,179.08,594.14,167.59,594.14,167.59Z" transform="translate(0 0)" fill="#0e171f"/><path d="M733.63,133.35v64.1H708.57V139.61c0-14.2-8.77-20.25-19.62-20.25-13,0-19.63,12.74-19.63,12.74v65.35H644.26v-99h23.39v14.41A34.2,34.2,0,0,1,697.3,96C716.51,96,733.63,109.54,733.63,133.35Z" transform="translate(0 0)" fill="#0e171f"/><path d="M845.56,132.93v64.52H822.38V184.92s-10.23,15-32.58,15c-18.58,0-35.7-12.11-35.7-33.2,0-19,17.33-32.78,38.84-32.78,18.16,0,27.56,7.09,27.56,7.09V135.4c0-13-12.53-17.13-21.3-17.13-14.41,0-29.65,7.31-29.65,7.31L761.41,105s18.37-9,39-9C828.85,96,845.56,110.38,845.56,132.93ZM820.5,167.59V157.36s-9-5-22.55-5c-7.73,0-18.38,3.34-18.38,14,0,10.44,10.23,12.74,18,12.74C812.56,179.08,820.5,167.59,820.5,167.59Z" transform="translate(0 0)" fill="#0e171f"/><path d="M912.17,200c-25.68,0-48.23-21.51-48.23-52s22.55-52,48.23-52A35.47,35.47,0,0,1,942,111.42V98.48h23.18v99.81c0,34.45-25.48,49.69-53.25,49.69-28.39,0-47-18.79-47-18.79L879.18,210S893,224.59,912,224.59c19.42,0,28.19-10.64,28.19-25.47v-11.9C936.81,191.4,927.83,200,912.17,200Zm28-66.82s-7.1-13.78-23.59-13.78c-16.92,0-27.15,12.32-27.15,28.6s10.23,28.61,27.15,28.61c16.28,0,23.59-13.78,23.59-13.78Z" transform="translate(0 0)" fill="#0e171f"/><path d="M1083.19,147.55c0,1.88,0,5.63-.21,9.39h-73.91c1.87,8.77,12.11,20.05,27.77,20.05,17.33,0,27.14-10,27.14-10l12.53,18.8a63.381,63.381,0,0,1-39.67,14.2c-30.07,0-53.25-23-53.25-52s21.09-52,49.7-52C1060.43,96,1083.19,117.06,1083.19,147.55Zm-25.06-8.77c-.41-8.56-8.35-20-24.84-20-16.08,0-23.39,11.28-24.22,20Z" transform="translate(0 0)" fill="#0e171f"/><path d="M1169.43,99.1l-8.77,22.56a28.72,28.72,0,0,0-11.9-2.3c-15.24,0-22.13,13.36-22.13,13.36v64.73h-25.06v-99h23.81v14.41S1133.94,96,1152.31,96a53.86,53.86,0,0,1,17.12,3.1Z" transform="translate(0 0)" fill="#0e171f"/></g><rect width="1294" height="587" fill="none"/></svg>